{
	"asset":{
		"generator":"Khronos glTF Blender I/O v4.1.62",
		"version":"2.0"
	},
	"scene":0,
	"scenes":[
		{
			"name":"Scene",
			"nodes":[
				33
			]
		}
	],
	"nodes":[
		{
			"name":"leg_front_left_hoof_end",
			"rotation":[
				-3.688037395477295e-07,
				5.494803190231323e-08,
				1.1641531472150746e-07,
				1
			],
			"scale":[
				1,
				1.0000001192092896,
				1
			],
			"translation":[
				-7.152557373046875e-07,
				4.642203330993652,
				-3.039836883544922e-06
			]
		},
		{
			"children":[
				0
			],
			"name":"leg_front_left_hoof",
			"rotation":[
				-0.26190465688705444,
				-0.5280635356903076,
				-0.1253415048122406,
				0.7980253100395203
			],
			"scale":[
				1.0000001192092896,
				1.0000001192092896,
				1
			],
			"translation":[
				3.5762786865234375e-07,
				11.802116394042969,
				-1.043081283569336e-06
			]
		},
		{
			"children":[
				1
			],
			"name":"leg_front_left_bot0",
			"rotation":[
				-0.08115486800670624,
				-0.3356363773345947,
				-0.03701779246330261,
				0.9377589225769043
			],
			"scale":[
				0.9999998807907104,
				0.9999998807907104,
				0.9999998807907104
			],
			"translation":[
				1.4901161193847656e-08,
				8.156745910644531,
				-5.364418029785156e-07
			]
		},
		{
			"children":[
				2
			],
			"name":"leg_front_left_top2",
			"rotation":[
				-0.10088817030191422,
				-0.9938849806785583,
				0.036150675266981125,
				0.026596132665872574
			],
			"scale":[
				1,
				0.9999996423721313,
				0.9999999403953552
			],
			"translation":[
				3.711320459842682e-07,
				7.692566394805908,
				3.3155083656311035e-07
			]
		},
		{
			"children":[
				3
			],
			"name":"leg_front_left_top1",
			"rotation":[
				0.15853571891784668,
				0.9763919711112976,
				-0.09493789076805115,
				0.11185687780380249
			],
			"scale":[
				1.0000001192092896,
				1.0000001192092896,
				1
			],
			"translation":[
				0,
				8.346311569213867,
				-1.7881393432617188e-07
			]
		},
		{
			"children":[
				4
			],
			"name":"leg_front_left_top0",
			"rotation":[
				0.5942465662956238,
				0.4809924066066742,
				0.5916249752044678,
				0.2559240758419037
			],
			"scale":[
				0.9999999403953552,
				1,
				1.0000001192092896
			],
			"translation":[
				1.1175870895385742e-08,
				8.816028594970703,
				1.9415165297687054e-07
			]
		},
		{
			"name":"leg_front_right_hoof_end",
			"rotation":[
				-1.648440957069397e-07,
				7.916241884231567e-07,
				1.7508864402770996e-07,
				1
			],
			"scale":[
				1,
				0.9999999403953552,
				1
			],
			"translation":[
				0,
				4.5412092208862305,
				1.3113021850585938e-06
			]
		},
		{
			"children":[
				6
			],
			"name":"leg_front_right_hoof",
			"rotation":[
				-0.20823921263217926,
				-0.3658813536167145,
				-0.13369034230709076,
				0.8971589803695679
			],
			"scale":[
				0.9999999403953552,
				1,
				1
			],
			"translation":[
				-2.384185791015625e-07,
				7.105990409851074,
				2.384185791015625e-07
			]
		},
		{
			"children":[
				7
			],
			"name":"leg_front_right_bot0",
			"rotation":[
				-0.05571760982275009,
				0.7063136100769043,
				-0.01652287319302559,
				0.7055094838142395
			],
			"scale":[
				1.0000001192092896,
				1.0000001192092896,
				0.9999999403953552
			],
			"translation":[
				2.9802322387695312e-08,
				12.343122482299805,
				1.1920928955078125e-07
			]
		},
		{
			"children":[
				8
			],
			"name":"leg_front_right_top2",
			"rotation":[
				-0.03843240067362785,
				0.9975097179412842,
				-0.03339999541640282,
				0.04880353808403015
			],
			"scale":[
				1,
				0.9999999403953552,
				1
			],
			"translation":[
				5.960464477539063e-08,
				8.175921440124512,
				7.450580596923828e-07
			]
		},
		{
			"children":[
				9
			],
			"name":"leg_front_right_top1",
			"rotation":[
				0.05988229811191559,
				-0.6922258138656616,
				0.18923765420913696,
				0.6938491463661194
			],
			"scale":[
				1,
				0.9999998211860657,
				0.9999999403953552
			],
			"translation":[
				1.2516975402832031e-06,
				8.604265213012695,
				-4.172325134277344e-07
			]
		},
		{
			"children":[
				10
			],
			"name":"leg_front_right_top0",
			"rotation":[
				0.559388279914856,
				-0.5184347629547119,
				-0.6238081455230713,
				0.1708027720451355
			],
			"scale":[
				0.9999998211860657,
				0.9999996423721313,
				0.9999997615814209
			],
			"translation":[
				1.1175870895385742e-08,
				8.816028594970703,
				1.9415165297687054e-07
			]
		},
		{
			"name":"head0_end",
			"rotation":[
				9.738143091908569e-08,
				2.328306880627906e-09,
				2.7939681679356454e-09,
				1
			],
			"scale":[
				0.9999999403953552,
				0.9999998807907104,
				0.9999998807907104
			],
			"translation":[
				5.960464477539063e-08,
				8.402059555053711,
				2.9280781745910645e-06
			]
		},
		{
			"children":[
				12
			],
			"name":"head0",
			"rotation":[
				0.08033846318721771,
				0.012578257359564304,
				0.053004853427410126,
				0.9952778816223145
			],
			"scale":[
				1,
				0.9999999403953552,
				0.9999998211860657
			],
			"translation":[
				7.450580596923828e-09,
				3.6010332107543945,
				-2.2830499801784754e-06
			]
		},
		{
			"children":[
				13
			],
			"name":"neck1",
			"rotation":[
				-0.3235217034816742,
				-0.0024100339505821466,
				-0.00021623198699671775,
				0.9462176561355591
			],
			"scale":[
				0.9999998807907104,
				1,
				0.9999999403953552
			],
			"translation":[
				-3.3527612686157227e-08,
				9.799010276794434,
				6.137997843325138e-07
			]
		},
		{
			"children":[
				14
			],
			"name":"neck0",
			"rotation":[
				-0.13595318794250488,
				-0.007657432463020086,
				-0.010881075635552406,
				0.9906259179115295
			],
			"scale":[
				0.9999998807907104,
				0.9999999403953552,
				0.9999998807907104
			],
			"translation":[
				1.1175870895385742e-08,
				8.816028594970703,
				1.9415165297687054e-07
			]
		},
		{
			"children":[
				5,
				11,
				15
			],
			"name":"body_top1",
			"rotation":[
				-0.022860728204250336,
				0.009559530764818192,
				0.011357487179338932,
				0.9996284246444702
			],
			"scale":[
				1.0000001192092896,
				1.000000238418579,
				1.0000001192092896
			],
			"translation":[
				1.4901161193847656e-08,
				8.797160148620605,
				1.2456439435482025e-07
			]
		},
		{
			"children":[
				16
			],
			"name":"body_top0",
			"rotation":[
				1.0142399808898972e-08,
				0.6527299284934998,
				0.7575535774230957,
				0.007502650376409292
			],
			"scale":[
				0.9999999403953552,
				1.000000238418579,
				1
			],
			"translation":[
				0.20000001788139343,
				0.25999945402145386,
				7.600000381469727
			]
		},
		{
			"name":"leg_hind_left_hoof_end",
			"rotation":[
				1.1338851635400715e-07,
				-4.381872145131638e-07,
				-1.695007085800171e-07,
				1
			],
			"scale":[
				1.0000001192092896,
				1,
				1.0000001192092896
			],
			"translation":[
				0,
				4.91782808303833,
				1.6093254089355469e-06
			]
		},
		{
			"children":[
				18
			],
			"name":"leg_hind_left_hoof",
			"rotation":[
				-0.2156842052936554,
				0.17682400345802307,
				0.07586461305618286,
				0.9573182463645935
			],
			"scale":[
				0.9999999403953552,
				1,
				1
			],
			"translation":[
				-1.430511474609375e-06,
				12.465758323669434,
				-1.9073486328125e-06
			]
		},
		{
			"children":[
				19
			],
			"name":"leg_hind_left_bot0",
			"rotation":[
				-0.31774458289146423,
				-0.6173680424690247,
				0.03714342415332794,
				0.7186900973320007
			],
			"scale":[
				1,
				0.9999999403953552,
				1.0000001192092896
			],
			"translation":[
				1.1920928955078125e-06,
				8.403566360473633,
				-7.152557373046875e-07
			]
		},
		{
			"children":[
				20
			],
			"name":"leg_hind_left_top2",
			"rotation":[
				0.16610190272331238,
				-0.10692457109689713,
				0.1053612157702446,
				0.9746159911155701
			],
			"scale":[
				1,
				1.0000001192092896,
				1
			],
			"translation":[
				-8.940696716308594e-07,
				8.020855903625488,
				8.344650268554688e-07
			]
		},
		{
			"children":[
				21
			],
			"name":"leg_hind_left_top1",
			"rotation":[
				0.18510101735591888,
				0.9805949926376343,
				0.03867822885513306,
				0.05172115936875343
			],
			"scale":[
				1,
				0.9999998807907104,
				0.9999999403953552
			],
			"translation":[
				3.5762786865234375e-07,
				5.414000034332275,
				-3.2782554626464844e-07
			]
		},
		{
			"children":[
				22
			],
			"name":"leg_hind_left_top0",
			"rotation":[
				-0.5167227387428284,
				-0.5648455619812012,
				0.5831069946289062,
				0.2719067335128784
			],
			"scale":[
				1.0000001192092896,
				1,
				1.0000001192092896
			],
			"translation":[
				5.962226623523748e-08,
				8.652434349060059,
				2.692374891921645e-07
			]
		},
		{
			"name":"leg_hind_right_hoof_end",
			"rotation":[
				-2.8870999813079834e-07,
				4.2188912630081177e-07,
				1.0151416063308716e-07,
				1
			],
			"translation":[
				-4.76837158203125e-07,
				4.085947513580322,
				-3.6954879760742188e-06
			]
		},
		{
			"children":[
				24
			],
			"name":"leg_hind_right_hoof",
			"rotation":[
				-0.2299550324678421,
				-0.1400911659002304,
				-0.07381565123796463,
				0.9602324962615967
			],
			"scale":[
				0.9999999403953552,
				0.9999999403953552,
				0.9999998807907104
			],
			"translation":[
				2.0265579223632812e-06,
				12.926322937011719,
				2.1457672119140625e-06
			]
		},
		{
			"children":[
				25
			],
			"name":"leg_hind_right_bot0",
			"rotation":[
				-0.353827565908432,
				0.065852090716362,
				-0.08078188449144363,
				0.9294857978820801
			],
			"translation":[
				1.1920928955078125e-06,
				10.359173774719238,
				7.152557373046875e-07
			]
		},
		{
			"children":[
				26
			],
			"name":"leg_hind_right_top2",
			"rotation":[
				0.13127093017101288,
				-0.8200000524520874,
				0.2440924495458603,
				0.5007861256599426
			],
			"scale":[
				1,
				0.9999997019767761,
				1
			],
			"translation":[
				5.364418029785156e-07,
				7.080507278442383,
				3.8743019104003906e-07
			]
		},
		{
			"children":[
				27
			],
			"name":"leg_hind_right_top1",
			"rotation":[
				0.11793503910303116,
				-0.15390990674495697,
				0.27905452251434326,
				0.9404954314231873
			],
			"scale":[
				1,
				1,
				1.0000001192092896
			],
			"translation":[
				-1.0728836059570312e-06,
				6.589871406555176,
				-2.5331974029541016e-06
			]
		},
		{
			"children":[
				28
			],
			"name":"leg_hind_right_top0",
			"rotation":[
				0.38116276264190674,
				-0.6469758152961731,
				0.6510190963745117,
				0.11095696687698364
			],
			"scale":[
				1,
				1.0000003576278687,
				1.0000001192092896
			],
			"translation":[
				5.962226623523748e-08,
				8.652434349060059,
				2.692374891921645e-07
			]
		},
		{
			"children":[
				23,
				29
			],
			"name":"body_bot",
			"rotation":[
				3.266402703872018e-09,
				0.7012574076652527,
				-0.7128044962882996,
				0.012160535901784897
			],
			"scale":[
				0.9999998807907104,
				1.0000001192092896,
				1
			],
			"translation":[
				1.4901161193847656e-08,
				0.09999974071979523,
				1.1726181128324242e-06
			]
		},
		{
			"children":[
				17,
				30
			],
			"name":"body",
			"rotation":[
				0,
				0.7071067690849304,
				0.7071067690849304,
				0
			],
			"translation":[
				0.15000000596046448,
				-14.84999942779541,
				-2.999999761581421
			]
		},
		{
			"mesh":0,
			"name":"correct_deer",
			"skin":0
		},
		{
			"children":[
				32,
				31
			],
			"name":"rig",
			"rotation":[
				0.7071068286895752,
				0,
				0,
				0.7071068286895752
			]
		}
	],
	"materials":[
		{
			"doubleSided":true,
			"name":"model",
			"pbrMetallicRoughness":{
				"metallicFactor":0.5,
				"roughnessFactor":0.5527864098548889
			}
		}
	],
	"meshes":[
		{
			"name":"correct_deer",
			"primitives":[
				{
					"attributes":{
						"POSITION":0,
						"NORMAL":1,
						"TEXCOORD_0":2,
						"JOINTS_0":3,
						"WEIGHTS_0":4
					},
					"indices":5,
					"material":0
				}
			]
		}
	],
	"skins":[
		{
			"inverseBindMatrices":6,
			"joints":[
				31,
				17,
				16,
				5,
				4,
				3,
				2,
				1,
				0,
				11,
				10,
				9,
				8,
				7,
				6,
				15,
				14,
				13,
				12,
				30,
				23,
				22,
				21,
				20,
				19,
				18,
				29,
				28,
				27,
				26,
				25,
				24
			],
			"name":"rig"
		}
	],
	"accessors":[
		{
			"bufferView":0,
			"componentType":5126,
			"count":2333,
			"max":[
				16.181819915771484,
				34.778114318847656,
				32.07228088378906
			],
			"min":[
				-16.181819915771484,
				-34.77811050415039,
				-32.07228469848633
			],
			"type":"VEC3"
		},
		{
			"bufferView":1,
			"componentType":5126,
			"count":2333,
			"type":"VEC3"
		},
		{
			"bufferView":2,
			"componentType":5126,
			"count":2333,
			"type":"VEC2"
		},
		{
			"bufferView":3,
			"componentType":5121,
			"count":2333,
			"type":"VEC4"
		},
		{
			"bufferView":4,
			"componentType":5126,
			"count":2333,
			"type":"VEC4"
		},
		{
			"bufferView":5,
			"componentType":5123,
			"count":8826,
			"type":"SCALAR"
		},
		{
			"bufferView":6,
			"componentType":5126,
			"count":32,
			"type":"MAT4"
		}
	],
	"bufferViews":[
		{
			"buffer":0,
			"byteLength":27996,
			"byteOffset":0,
			"target":34962
		},
		{
			"buffer":0,
			"byteLength":27996,
			"byteOffset":27996,
			"target":34962
		},
		{
			"buffer":0,
			"byteLength":18664,
			"byteOffset":55992,
			"target":34962
		},
		{
			"buffer":0,
			"byteLength":9332,
			"byteOffset":74656,
			"target":34962
		},
		{
			"buffer":0,
			"byteLength":37328,
			"byteOffset":83988,
			"target":34962
		},
		{
			"buffer":0,
			"byteLength":17652,
			"byteOffset":121316,
			"target":34963
		},
		{
			"buffer":0,
			"byteLength":2048,
			"byteOffset":138968
		}
	],
	"buffers":[
		{
			"byteLength":141016,
			"uri":"correct_deer.bin"
		}
	]
}
